<!-- <svg xmlns="http://www.w3.org/2000/svg" fill="currentColor" viewBox="0 0 20 20">
  <path d="M10 2a1 1 0 011 1v1.1a5.002 5.002 0 013 4.9 5.002 5.002 0 01-3 4.9V17a1 1 0 11-2 0v-1.1a5.002 5.002 0 01-3-4.9 5.002 5.002 0 013-4.9V3a1 1 0 011-1z" />
</svg>
 -->


  <svg
    xmlns="http://www.w3.org/2000/svg"
    fill="none"
    viewBox="0 0 24 24"
    width="100"
    height="100"
  >
    {/* Green left-pointing arrow */}
    <path d="M10 11l-4-4 4-4" stroke="#22c55e" strokeWidth={2} />

    {/* Red right-pointing arrow */}
    <path d="M14 13l4 4-4 4" stroke="#ef4444" strokeWidth={2} />

    {/* Horizontal lines in neutral gray */}
    <path d="M4 17h16" stroke="#6b7280" strokeWidth={2} />
    <path d="M4 7h16" stroke="#6b7280" strokeWidth={2} />
  </svg>

